{
    "asset" : {
        "copyright" : "aw",
        "generator" : "Khronos glTF Blender I/O v3.3.32",
        "version" : "2.0"
    },
    "extensionsUsed" : [
        "KHR_materials_emissive_strength"
    ],
    "scene" : 0,
    "scenes" : [
        {
            "name" : "Scene",
            "nodes" : [
                0,
                1,
                2
            ]
        }
    ],
    "nodes" : [
        {
            "mesh" : 0,
            "name" : "chama2",
            "scale" : [
                1.4962553977966309,
                1.4962553977966309,
                1.4962553977966309
            ],
            "translation" : [
                0.8493961095809937,
                4.082013130187988,
                0.49985194206237793
            ]
        },
        {
            "mesh" : 1,
            "name" : "chama1",
            "scale" : [
                1.4962553977966309,
                1.4962553977966309,
                1.4962553977966309
            ],
            "translation" : [
                -0.8547736406326294,
                4.011928081512451,
                0.49985194206237793
            ]
        },
        {
            "mesh" : 2,
            "name" : "chama2.001",
            "scale" : [
                1.4962553977966309,
                1.4962553977966309,
                1.4962553977966309
            ],
            "translation" : [
                -0.012525200843811035,
                4.011928081512451,
                0.49985194206237793
            ]
        }
    ],
    "animations" : [
        {
            "channels" : [
                {
                    "sampler" : 0,
                    "target" : {
                        "node" : 0,
                        "path" : "translation"
                    }
                },
                {
                    "sampler" : 1,
                    "target" : {
                        "node" : 0,
                        "path" : "rotation"
                    }
                },
                {
                    "sampler" : 2,
                    "target" : {
                        "node" : 0,
                        "path" : "scale"
                    }
                }
            ],
            "name" : "Cube.324Action",
            "samplers" : [
                {
                    "input" : 10,
                    "interpolation" : "LINEAR",
                    "output" : 11
                },
                {
                    "input" : 10,
                    "interpolation" : "LINEAR",
                    "output" : 12
                },
                {
                    "input" : 10,
                    "interpolation" : "LINEAR",
                    "output" : 13
                }
            ]
        },
        {
            "channels" : [
                {
                    "sampler" : 0,
                    "target" : {
                        "node" : 1,
                        "path" : "translation"
                    }
                },
                {
                    "sampler" : 1,
                    "target" : {
                        "node" : 1,
                        "path" : "rotation"
                    }
                },
                {
                    "sampler" : 2,
                    "target" : {
                        "node" : 1,
                        "path" : "scale"
                    }
                }
            ],
            "name" : "Cube.324Action.001",
            "samplers" : [
                {
                    "input" : 10,
                    "interpolation" : "LINEAR",
                    "output" : 14
                },
                {
                    "input" : 10,
                    "interpolation" : "LINEAR",
                    "output" : 15
                },
                {
                    "input" : 10,
                    "interpolation" : "LINEAR",
                    "output" : 16
                }
            ]
        },
        {
            "channels" : [
                {
                    "sampler" : 0,
                    "target" : {
                        "node" : 2,
                        "path" : "translation"
                    }
                },
                {
                    "sampler" : 1,
                    "target" : {
                        "node" : 2,
                        "path" : "rotation"
                    }
                },
                {
                    "sampler" : 2,
                    "target" : {
                        "node" : 2,
                        "path" : "scale"
                    }
                }
            ],
            "name" : "Cube.324Action.002",
            "samplers" : [
                {
                    "input" : 10,
                    "interpolation" : "LINEAR",
                    "output" : 17
                },
                {
                    "input" : 10,
                    "interpolation" : "LINEAR",
                    "output" : 18
                },
                {
                    "input" : 10,
                    "interpolation" : "LINEAR",
                    "output" : 19
                }
            ]
        }
    ],
    "materials" : [
        {
            "doubleSided" : true,
            "emissiveFactor" : [
                1,
                0.0612114742398262,
                0.004395661875605583
            ],
            "extensions" : {
                "KHR_materials_emissive_strength" : {
                    "emissiveStrength" : 3.700000286102295
                }
            },
            "name" : "Material.002",
            "pbrMetallicRoughness" : {
                "baseColorFactor" : [
                    0.8000000715255737,
                    0.010017896071076393,
                    0,
                    1
                ],
                "metallicFactor" : 0,
                "roughnessFactor" : 0.5
            }
        }
    ],
    "meshes" : [
        {
            "name" : "Cube.011",
            "primitives" : [
                {
                    "attributes" : {
                        "POSITION" : 0,
                        "NORMAL" : 1,
                        "TEXCOORD_0" : 2
                    },
                    "indices" : 3,
                    "material" : 0
                }
            ]
        },
        {
            "name" : "Cube.001",
            "primitives" : [
                {
                    "attributes" : {
                        "POSITION" : 4,
                        "NORMAL" : 5,
                        "TEXCOORD_0" : 6
                    },
                    "indices" : 3,
                    "material" : 0
                }
            ]
        },
        {
            "name" : "Cube.002",
            "primitives" : [
                {
                    "attributes" : {
                        "POSITION" : 7,
                        "NORMAL" : 8,
                        "TEXCOORD_0" : 9
                    },
                    "indices" : 3,
                    "material" : 0
                }
            ]
        }
    ],
    "accessors" : [
        {
            "bufferView" : 0,
            "componentType" : 5126,
            "count" : 1193,
            "max" : [
                0.27089762687683105,
                0.6181169748306274,
                0.200047105550766
            ],
            "min" : [
                -0.22688353061676025,
                0.0030327613931149244,
                -0.200047105550766
            ],
            "type" : "VEC3"
        },
        {
            "bufferView" : 1,
            "componentType" : 5126,
            "count" : 1193,
            "type" : "VEC3"
        },
        {
            "bufferView" : 2,
            "componentType" : 5126,
            "count" : 1193,
            "type" : "VEC2"
        },
        {
            "bufferView" : 3,
            "componentType" : 5123,
            "count" : 5760,
            "type" : "SCALAR"
        },
        {
            "bufferView" : 4,
            "componentType" : 5126,
            "count" : 1193,
            "max" : [
                0.27089762687683105,
                0.6181169748306274,
                0.200047105550766
            ],
            "min" : [
                -0.22688353061676025,
                0.0030327613931149244,
                -0.200047105550766
            ],
            "type" : "VEC3"
        },
        {
            "bufferView" : 5,
            "componentType" : 5126,
            "count" : 1193,
            "type" : "VEC3"
        },
        {
            "bufferView" : 6,
            "componentType" : 5126,
            "count" : 1193,
            "type" : "VEC2"
        },
        {
            "bufferView" : 7,
            "componentType" : 5126,
            "count" : 1193,
            "max" : [
                0.27089762687683105,
                0.6181169748306274,
                0.200047105550766
            ],
            "min" : [
                -0.22688353061676025,
                0.0030327613931149244,
                -0.200047105550766
            ],
            "type" : "VEC3"
        },
        {
            "bufferView" : 8,
            "componentType" : 5126,
            "count" : 1193,
            "type" : "VEC3"
        },
        {
            "bufferView" : 9,
            "componentType" : 5126,
            "count" : 1193,
            "type" : "VEC2"
        },
        {
            "bufferView" : 10,
            "componentType" : 5126,
            "count" : 51,
            "max" : [
                2.0833333333333335
            ],
            "min" : [
                0
            ],
            "type" : "SCALAR"
        },
        {
            "bufferView" : 11,
            "componentType" : 5126,
            "count" : 51,
            "type" : "VEC3"
        },
        {
            "bufferView" : 12,
            "componentType" : 5126,
            "count" : 51,
            "type" : "VEC4"
        },
        {
            "bufferView" : 13,
            "componentType" : 5126,
            "count" : 51,
            "type" : "VEC3"
        },
        {
            "bufferView" : 14,
            "componentType" : 5126,
            "count" : 51,
            "type" : "VEC3"
        },
        {
            "bufferView" : 15,
            "componentType" : 5126,
            "count" : 51,
            "type" : "VEC4"
        },
        {
            "bufferView" : 16,
            "componentType" : 5126,
            "count" : 51,
            "type" : "VEC3"
        },
        {
            "bufferView" : 17,
            "componentType" : 5126,
            "count" : 51,
            "type" : "VEC3"
        },
        {
            "bufferView" : 18,
            "componentType" : 5126,
            "count" : 51,
            "type" : "VEC4"
        },
        {
            "bufferView" : 19,
            "componentType" : 5126,
            "count" : 51,
            "type" : "VEC3"
        }
    ],
    "bufferViews" : [
        {
            "buffer" : 0,
            "byteLength" : 14316,
            "byteOffset" : 0,
            "target" : 34962
        },
        {
            "buffer" : 0,
            "byteLength" : 14316,
            "byteOffset" : 14316,
            "target" : 34962
        },
        {
            "buffer" : 0,
            "byteLength" : 9544,
            "byteOffset" : 28632,
            "target" : 34962
        },
        {
            "buffer" : 0,
            "byteLength" : 11520,
            "byteOffset" : 38176,
            "target" : 34963
        },
        {
            "buffer" : 0,
            "byteLength" : 14316,
            "byteOffset" : 49696,
            "target" : 34962
        },
        {
            "buffer" : 0,
            "byteLength" : 14316,
            "byteOffset" : 64012,
            "target" : 34962
        },
        {
            "buffer" : 0,
            "byteLength" : 9544,
            "byteOffset" : 78328,
            "target" : 34962
        },
        {
            "buffer" : 0,
            "byteLength" : 14316,
            "byteOffset" : 87872,
            "target" : 34962
        },
        {
            "buffer" : 0,
            "byteLength" : 14316,
            "byteOffset" : 102188,
            "target" : 34962
        },
        {
            "buffer" : 0,
            "byteLength" : 9544,
            "byteOffset" : 116504,
            "target" : 34962
        },
        {
            "buffer" : 0,
            "byteLength" : 204,
            "byteOffset" : 126048
        },
        {
            "buffer" : 0,
            "byteLength" : 612,
            "byteOffset" : 126252
        },
        {
            "buffer" : 0,
            "byteLength" : 816,
            "byteOffset" : 126864
        },
        {
            "buffer" : 0,
            "byteLength" : 612,
            "byteOffset" : 127680
        },
        {
            "buffer" : 0,
            "byteLength" : 612,
            "byteOffset" : 128292
        },
        {
            "buffer" : 0,
            "byteLength" : 816,
            "byteOffset" : 128904
        },
        {
            "buffer" : 0,
            "byteLength" : 612,
            "byteOffset" : 129720
        },
        {
            "buffer" : 0,
            "byteLength" : 612,
            "byteOffset" : 130332
        },
        {
            "buffer" : 0,
            "byteLength" : 816,
            "byteOffset" : 130944
        },
        {
            "buffer" : 0,
            "byteLength" : 612,
            "byteOffset" : 131760
        }
    ],
    "buffers" : [
        {
            "byteLength" : 132372,
            "uri" : "data:application/octet-stream;base64,"
        }
    ]
}
